<?xml version="1.0" encoding="UTF-8" standalone="no"?>
<!-- Created with Inkscape (http://www.inkscape.org/) -->

<svg
   xmlns:dc="http://purl.org/dc/elements/1.1/"
   xmlns:cc="http://creativecommons.org/ns#"
   xmlns:rdf="http://www.w3.org/1999/02/22-rdf-syntax-ns#"
   xmlns:svg="http://www.w3.org/2000/svg"
   xmlns="http://www.w3.org/2000/svg"
   version="1.1"
   width="675.53937"
   height="540.14563"
   id="svg3004"
   xml:space="preserve"><metadata
     id="metadata3010"><rdf:RDF><cc:Work
         rdf:about=""><dc:format>image/svg+xml</dc:format><dc:type
           rdf:resource="http://purl.org/dc/dcmitype/StillImage" /><dc:title></dc:title></cc:Work></rdf:RDF></metadata><defs
     id="defs3008"><clipPath
       id="clipPath3026"><path
         d="m 28.84264,429.1689 c -16.33003,0 -29.4765833,-13.1466 -29.4765833,-29.4766 l 0,-71.4807 0,-49.6957 0,-154.8442 c 0,-16.33 13.1465533,-29.47658 29.4765833,-29.47658 l 480.52076,0 c 16.33,0 29.4766,13.14658 29.4766,29.47658 l 0,204.5399 c 0,16.33 -13.1466,29.4766 -29.4766,29.4766 l -241.6223,0 c -11.1242,1.7456 -14.4373,10.0932 -15.2909,16.6727 l 0,8.2902 0,17.0412 c 0,16.33 -13.1466,29.4766 -29.4766,29.4766 l -194.13096,0 z"
         id="path3028" /></clipPath><linearGradient
       x1="-0.63394332"
       y1="2.947643"
       x2="538.84003"
       y2="2.9476171"
       id="linearGradient3038"
       gradientUnits="userSpaceOnUse"
       gradientTransform="matrix(1,0,0,-1,0,432.1165)"><stop
         id="stop3040"
         style="stop-color:#aaccee;stop-opacity:1"
         offset="0" /><stop
         id="stop3042"
         style="stop-color:#336699;stop-opacity:1"
         offset="1" /></linearGradient><clipPath
       id="clipPath3050"><path
         d="M 18.98984,2.94768 C 8.502132,2.94768 -2.00819e-6,10.99755 -2.00819e-6,20.92737 l 0,299.01893 c 0,9.9298 8.50213400819,17.9797 18.98984200819,17.9797 l 502.45186,0 c 10.4877,0 18.9898,-8.0499 18.9898,-17.9797 l 0,-299.01893 c 0,-9.92982 -8.5021,-17.97969 -18.9898,-17.97969 l -502.45186,0 z"
         id="path3052" /></clipPath><linearGradient
       x1="-2.00819e-06"
       y1="94.190514"
       x2="540.43152"
       y2="94.190536"
       id="linearGradient3062"
       gradientUnits="userSpaceOnUse"
       gradientTransform="matrix(1,0,0,-1,0,432.1165)"><stop
         id="stop3064"
         style="stop-color:#b3ddfd;stop-opacity:1"
         offset="0" /><stop
         id="stop3066"
         style="stop-color:#6699cc;stop-opacity:1"
         offset="1" /></linearGradient></defs><g
     transform="matrix(1.25,0,0,-1.25,0,540.14562)"
     id="g3012"><g
       id="g3014" /><g
       id="g3016"><path
         d="m 28.84264,432.1165 c -16.33003,0 -29.4765833,-13.1465 -29.4765833,-29.4766 l 0,-71.4807 0,-49.6957 0,-154.8441 c 0,-16.3301 13.1465533,-29.47662 29.4765833,-29.47662 l 479.52076,0 c 16.33,0 29.4766,13.14652 29.4766,29.47662 l 0,204.5398 c 0,16.3301 -13.1466,29.4766 -29.4766,29.4766 l -240.6223,0 c -11.1242,1.7457 -14.4373,10.0932 -15.2909,16.6727 l 0,8.2903 0,17.0411 c 0,16.3301 -13.1466,29.4766 -29.4766,29.4766 l -194.13096,0 z"
         id="path3018"
         style="fill:#6699cc;fill-opacity:1;fill-rule:evenodd;stroke:none" /><path
         d="M 18.98984,2.183643e-5 C 8.502132,2.183643e-5 -2.00819e-6,8.04989 -2.00819e-6,17.97971 l 0,299.01899 c 0,9.9298 8.50213400819,17.9796 18.98984200819,17.9796 l 502.45186,0 c 10.4877,0 18.9898,-8.0498 18.9898,-17.9796 l 0,-299.01899 C 540.4315,8.04989 531.9294,2.183643e-5 521.4417,2.183643e-5 l -502.45186,0 z"
         id="path3020"
         style="fill:#336699;fill-opacity:1;fill-rule:evenodd;stroke:none" /></g><g
       id="g3022"><g
         clip-path="url(#clipPath3026)"
         id="g3024"><g
           id="g3030"><g
             id="g3036"><path
               d="m -0.6339433,94.19512 539.4739033,0 0,334.9738 -539.4739033,0 0,-334.9738 z"
               id="path3044"
               style="fill:url(#linearGradient3038);stroke:none" /></g></g></g></g><g
       id="g3046"><g
         clip-path="url(#clipPath3050)"
         id="g3048"><g
           id="g3054"><g
             id="g3060"><path
               d="m -2.00819e-6,2.94768 540.43150200819,0 0,334.9783 -540.43150200819,0 0,-334.9783 z"
               id="path3068"
               style="fill:url(#linearGradient3062);stroke:none" /></g></g></g></g></g></svg>